<svg xmlns="http://www.w3.org/2000/svg" viewBox="0 0 128 128"><defs><style>.cls-1{fill:#00bed6;}</style></defs><g id="Layer_2" data-name="Layer 2"><g id="Camada_1" data-name="Camada 1"><line class="cls-1" x1="79.2" y1="6.01" x2="84.58" y2="0.64"/><path class="cls-1" d="M80.26,1.15h3.26a2.17,2.17,0,0,1,2.17,2.17v0A2.18,2.18,0,0,1,83.52,5.5H80.26a2.17,2.17,0,0,1-2.17-2.17v0a2.18,2.18,0,0,1,2.18-2.18Z" transform="translate(21.65 58.89) rotate(-45.01)"/><line class="cls-1" x1="100.64" y1="27.41" x2="106.02" y2="22.04"/><path class="cls-1" d="M101.7,22.55H105a2.17,2.17,0,0,1,2.17,2.17v0A2.18,2.18,0,0,1,105,26.9H101.7a2.17,2.17,0,0,1-2.17-2.17v0a2.18,2.18,0,0,1,2.18-2.18Z" transform="translate(12.8 80.33) rotate(-45.02)"/><line class="cls-1" x1="121.98" y1="48.76" x2="127.36" y2="43.38"/><path class="cls-1" d="M123,43.89h3.26a2.17,2.17,0,0,1,2.17,2.17v0a2.18,2.18,0,0,1-2.18,2.18H123a2.17,2.17,0,0,1-2.17-2.17v0A2.18,2.18,0,0,1,123,43.89Z" transform="translate(3.95 101.68) rotate(-45.01)"/><line class="cls-1" x1="0.65" y1="84.52" x2="6.03" y2="79.15"/><path class="cls-1" d="M1.71,79.66H5a2.17,2.17,0,0,1,2.17,2.17v0A2.18,2.18,0,0,1,5,84H1.71A2.17,2.17,0,0,1-.47,81.84v0A2.18,2.18,0,0,1,1.71,79.66Z" transform="translate(-56.9 26.34) rotate(-45.01)"/><line class="cls-1" x1="22.07" y1="105.94" x2="27.45" y2="100.56"/><path class="cls-1" d="M23.14,101.08h3.26a2.17,2.17,0,0,1,2.17,2.17v0a2.18,2.18,0,0,1-2.18,2.18H23.13A2.17,2.17,0,0,1,21,103.25v0a2.18,2.18,0,0,1,2.18-2.18Z" transform="translate(-65.77 47.78) rotate(-45.02)"/><line class="cls-1" x1="43.42" y1="127.28" x2="48.8" y2="121.9"/><path class="cls-1" d="M44.48,122.41h3.26a2.17,2.17,0,0,1,2.17,2.17v0a2.18,2.18,0,0,1-2.18,2.18H44.48a2.17,2.17,0,0,1-2.17-2.17v0A2.18,2.18,0,0,1,44.48,122.41Z" transform="translate(-74.61 69.13) rotate(-45.01)"/><line class="cls-1" x1="6.02" y1="48.83" x2="0.64" y2="43.46"/><path class="cls-1" d="M3.33,42.34h0A2.18,2.18,0,0,1,5.5,44.52v3.26a2.17,2.17,0,0,1-2.17,2.17h0a2.18,2.18,0,0,1-2.18-2.18V44.51A2.17,2.17,0,0,1,3.33,42.34Z" transform="translate(-31.65 15.86) rotate(-44.98)"/><line class="cls-1" x1="27.44" y1="27.42" x2="22.06" y2="22.04"/><path class="cls-1" d="M24.75,20.93h0a2.18,2.18,0,0,1,2.18,2.18v3.26a2.17,2.17,0,0,1-2.17,2.17h0a2.18,2.18,0,0,1-2.18-2.18V23.1a2.17,2.17,0,0,1,2.17-2.17Z" transform="translate(-10.24 24.74) rotate(-44.99)"/><line class="cls-1" x1="48.8" y1="6.09" x2="43.42" y2="0.71"/><path class="cls-1" d="M46.11-.4h0a2.18,2.18,0,0,1,2.18,2.18V5A2.17,2.17,0,0,1,46.11,7.2h0A2.18,2.18,0,0,1,43.93,5V1.77A2.17,2.17,0,0,1,46.11-.4Z" transform="translate(11.09 33.59) rotate(-44.99)"/><line class="cls-1" x1="84.59" y1="127.36" x2="79.21" y2="121.99"/><path class="cls-1" d="M81.9,120.87h0A2.18,2.18,0,0,1,84.07,123v3.26a2.17,2.17,0,0,1-2.17,2.17h0a2.18,2.18,0,0,1-2.18-2.18V123a2.17,2.17,0,0,1,2.17-2.17Z" transform="translate(-64.16 94.39) rotate(-44.98)"/><line class="cls-1" x1="106.01" y1="105.95" x2="100.63" y2="100.57"/><path class="cls-1" d="M103.32,99.46h0a2.18,2.18,0,0,1,2.18,2.18v3.26a2.17,2.17,0,0,1-2.17,2.17h0a2.18,2.18,0,0,1-2.18-2.18v-3.26a2.17,2.17,0,0,1,2.17-2.17Z" transform="translate(-42.75 103.27) rotate(-44.99)"/><line class="cls-1" x1="127.36" y1="84.61" x2="121.98" y2="79.23"/><path class="cls-1" d="M124.67,78.12h0a2.18,2.18,0,0,1,2.18,2.18v3.26a2.17,2.17,0,0,1-2.17,2.17h0a2.18,2.18,0,0,1-2.18-2.18V80.29A2.17,2.17,0,0,1,124.67,78.12Z" transform="translate(-21.42 112.11) rotate(-44.99)"/><path class="cls-1" d="M93.67,52.36a2.11,2.11,0,1,0-2.11,2.1A2.1,2.1,0,0,0,93.67,52.36Z"/><path class="cls-1" d="M105.32,63.9a2.11,2.11,0,1,0-2.11,2.1A2.1,2.1,0,0,0,105.32,63.9Z"/><path class="cls-1" d="M75.75,62.44a2.11,2.11,0,1,0-2.11,2.1A2.1,2.1,0,0,0,75.75,62.44Z"/><circle class="cls-1" cx="64" cy="24.79" r="2.11"/><path class="cls-1" d="M115.58,51.38,76.65,12.47a17.9,17.9,0,0,0-25.3,0L12.42,51.38a17.87,17.87,0,0,0,0,25.29l38.93,38.91a13.64,13.64,0,0,0,1.13,1V86.55A1.69,1.69,0,0,0,52,85.33L36.67,70.16a4,4,0,0,1-1.17-2.81V67a1.69,1.69,0,0,0-1.68-1.69H30.16a1.66,1.66,0,0,0-1.46.82,4.46,4.46,0,1,1,.06-4.24,1.66,1.66,0,0,0,1.47.87h3.59a1.69,1.69,0,0,0,1.68-1.69V57.43a1.69,1.69,0,0,0-.85-1.49,4.45,4.45,0,1,1,4.24,0,1.61,1.61,0,0,0-.84,1.44v9.95a1.4,1.4,0,0,0,.42,1l16.11,16A1.52,1.52,0,0,1,55,85.46v33a18,18,0,0,0,2.55,1.21V81.73a1.75,1.75,0,0,0-.52-1.24l-7.35-7.08a4,4,0,0,1-1.17-2.81v-3a1.6,1.6,0,0,0-.77-1.4,4.46,4.46,0,1,1,4.23.1,1.65,1.65,0,0,0-.9,1.49V70.6a1.38,1.38,0,0,0,.42,1l5,5a.62.62,0,0,0,1.06-.44V56.84a1.69,1.69,0,0,0-.51-1.21l-7.57-7.29a4,4,0,0,1-1.16-2.81V44a1.73,1.73,0,0,0-.77-1.46,4.45,4.45,0,0,1-2-3.81,4.52,4.52,0,0,1,4.4-4.39,4.45,4.45,0,0,1,2,8.49,1.66,1.66,0,0,0-1,1.5v1.18a1.42,1.42,0,0,0,.42,1l8.38,8.38a1.48,1.48,0,0,1,.44,1V120.4a17.3,17.3,0,0,0,2.57.37V30.24a1.78,1.78,0,0,0-.89-1.56,4.46,4.46,0,1,1,4.29,0,1.65,1.65,0,0,0-.84,1.45V50.42a.63.63,0,0,0,1.08.44l5.51-5.52a1.41,1.41,0,0,0,.41-1s0-3.1,0-4.79a1.59,1.59,0,0,0-.81-1.41,4.39,4.39,0,0,1-2.23-4.71,4.46,4.46,0,0,1,8.85.8,4.38,4.38,0,0,1-2.43,4,1.55,1.55,0,0,0-.83,1.39v4.75a3.91,3.91,0,0,1-1.16,2.81L65.8,54.78A1.71,1.71,0,0,0,65.28,56v64.76a16.85,16.85,0,0,0,2.55-.37V81.9a1.43,1.43,0,0,1,.42-1l3.69-3.69a1.42,1.42,0,0,0,.42-1V72.82h0v-5a1.6,1.6,0,0,0-.8-1.42,4.46,4.46,0,1,1,4.26-.05,1.77,1.77,0,0,0-.9,1.54v8.32A3.92,3.92,0,0,1,73.75,79l-2.87,2.77a1.62,1.62,0,0,0-.49,1.16v36.71a18,18,0,0,0,2.55-1.21V87.24a1.53,1.53,0,0,1,.43-1.07l.3-.29L89.74,69.8a1.42,1.42,0,0,0,.42-1V57.69a1.63,1.63,0,0,0-.81-1.46,4.46,4.46,0,0,1-2.17-4.76A4.41,4.41,0,0,1,90.67,48a4.45,4.45,0,0,1,2.94,8.32,1.67,1.67,0,0,0-.89,1.49v3.13a1.69,1.69,0,0,0,1.68,1.69h3.38a1.74,1.74,0,0,0,1.53-.88,4.46,4.46,0,1,1,0,4.31,1.73,1.73,0,0,0-1.51-.88H94.39a1.68,1.68,0,0,0-1.67,1.68v1.94a4,4,0,0,1-1.17,2.82L76,87.2a1.68,1.68,0,0,0-.49,1.18v28.25c.39-.33.78-.68,1.15-1l38.93-38.91A17.85,17.85,0,0,0,115.58,51.38Z"/><path class="cls-1" d="M52.1,38.81A2.11,2.11,0,1,0,50,40.92,2.11,2.11,0,0,0,52.1,38.81Z"/><path class="cls-1" d="M75.75,34.23a2.11,2.11,0,1,0-2.11,2.11A2.1,2.1,0,0,0,75.75,34.23Z"/><path class="cls-1" d="M38.89,52a2.11,2.11,0,1,0-2.11,2.11A2.11,2.11,0,0,0,38.89,52Z"/><path class="cls-1" d="M22.7,64a2.11,2.11,0,1,0,2.11-2.11A2.12,2.12,0,0,0,22.7,64Z"/><circle class="cls-1" cx="49.99" cy="62.31" r="2.11"/></g></g></svg>